<svg xmlns="http://www.w3.org/2000/svg" viewBox="0 0 511.42529 465.60443"><title>Asset 2</title><g id="Layer_2" data-name="Layer 2"><g id="Layer_1-2" data-name="Layer 1"><path d="M446.17822,0H65.24658A65.32063,65.32063,0,0,0,0,65.24707V230.22119a65.32073,65.32073,0,0,0,65.24658,65.24756h116.7475l-14.33344-43H65.24658A22.27225,22.27225,0,0,1,43,230.22119V65.24707A22.27183,22.27183,0,0,1,65.24658,43H446.17822a22.27225,22.27225,0,0,1,22.24707,22.24707V230.22119a22.27267,22.27267,0,0,1-22.24707,22.24756H418.824l11.02948,3.67664A39.492,39.492,0,0,1,456.892,293.66156c0,.3064-.01123.61066-.01819.91571a65.342,65.342,0,0,0,54.55145-64.35608V65.24707A65.32073,65.32073,0,0,0,446.17822,0Z"/><path d="M198.78534,181.25543a39.422,39.422,0,0,1,12.57342,2.05548l49.52332,16.50843H422.35089a12.03527,12.03527,0,0,0,12-12V107.64917a12.03527,12.03527,0,0,0-12-12H88.90405a12.03527,12.03527,0,0,0-12,12v80.17017a12.03528,12.03528,0,0,0,12,12h76.369a39.95758,39.95758,0,0,1,5.56714-6.98578A39.22968,39.22968,0,0,1,198.78534,181.25543Z"/><path d="M344.35266,331.53192l72.56128-24.18854a12.31949,12.31949,0,0,0,0-23.37323L207.84583,214.27783a12.31919,12.31919,0,0,0-15.5846,15.58093L261.95355,438.935a12.31743,12.31743,0,0,0,23.37323,0l24.18488-72.56134,92.01178,92.01178a24.63683,24.63683,0,1,0,34.841-34.84247Z"/></g></g></svg>